<svg xmlns="http://www.w3.org/2000/svg" xmlns:xlink="http://www.w3.org/1999/xlink" width="604" height="559.992" viewBox="0 0 604 559.992"><defs><clipPath id="a"><rect width="604" height="559.992" transform="translate(354 3455)" fill="#fff"/></clipPath></defs><g transform="translate(-354 -3455)" clip-path="url(#a)"><g transform="translate(381.761 3495.021)"><g transform="translate(13.929 38.341)"><path d="M550.869,225c-22.676-12.862-46.3-18.025-72.079-14.719-31.755,4.061-56.836,8.847-87.221-3.412-25.547-10.3-48.879-25.664-73.245-38.406-49.841-26.193-99.317-34.3-136.683,17.361-19.878,27.491-34.976,59.058-45.4,92.361-16.847,53.729-30.691,113.225-23.1,169.339,9.6,71.135,68.494,104.529,138.941,78.759,28.491-10.417,55.99-25.664,86.376-30.027,63.583-9.149,115.989,51.328,192.236,36.624C662.121,507.583,652.416,282.6,550.869,225Z" transform="translate(-111.014 -147.849)" fill="#0869d0"/><path d="M550.869,225c-22.676-12.862-46.3-18.025-72.079-14.719-31.755,4.061-56.836,8.847-87.221-3.412-25.547-10.3-48.879-25.664-73.245-38.406-49.841-26.193-99.317-34.3-136.683,17.361-19.878,27.491-34.976,59.058-45.4,92.361-16.847,53.729-30.691,113.225-23.1,169.339,9.6,71.135,68.494,104.529,138.941,78.759,28.491-10.417,55.99-25.664,86.376-30.027,63.583-9.149,115.989,51.328,192.236,36.624C662.121,507.583,652.416,282.6,550.869,225Z" transform="translate(-111.014 -147.849)" fill="#fff" opacity="0.7"/></g><g transform="translate(87.602 0)"><path d="M570.762,168.378c-9.254-5.239-13.451-.876-16.818-5.239s9.254-15.685-16.031-27.008c0,0-1.676-24.4-36.171-25.272s-25.2,24.4-34.451,30.5-11.775-3.427-21.029,2.612-5.042,18.3-12.606,20.033-17.677-7.835-26.931-1.736-9.254,11.322-13.451,11.322-12.62-3.487-17.663,0-10.945,7.85-10.945,7.85h212.77S580.016,173.6,570.762,168.378Z" transform="translate(-184.687 -110.837)" fill="#0869d0"/><path d="M570.762,168.378c-9.254-5.239-13.451-.876-16.818-5.239s9.254-15.685-16.031-27.008c0,0-1.676-24.4-36.171-25.272s-25.2,24.4-34.451,30.5-11.775-3.427-21.029,2.612-5.042,18.3-12.606,20.033-17.677-7.835-26.931-1.736-9.254,11.322-13.451,11.322-12.62-3.487-17.663,0-10.945,7.85-10.945,7.85h212.77S580.016,173.6,570.762,168.378Z" transform="translate(-184.687 -110.837)" fill="#fff" opacity="0.5"/><path d="M329.472,356.843c-6.5-3.668-9.458-.619-11.819-3.668s6.5-11.021-11.221-18.976c0,0-1.18-17.135-25.416-17.754S263.3,333.579,256.8,337.866s-8.263-2.446-14.763,1.842-3.556,12.847-8.861,14.07-12.416-5.51-18.945-1.223-6.5,7.956-9.443,7.956-8.875-2.446-12.416,0-7.68,5.51-7.68,5.51H334.194S335.972,360.511,329.472,356.843Z" transform="translate(-184.687 -103.454)" fill="#fff"/><path d="M329.472,356.843c-6.5-3.668-9.458-.619-11.819-3.668s6.5-11.021-11.221-18.976c0,0-1.18-17.135-25.416-17.754S263.3,333.579,256.8,337.866s-8.263-2.446-14.763,1.842-3.556,12.847-8.861,14.07-12.416-5.51-18.945-1.223-6.5,7.956-9.443,7.956-8.875-2.446-12.416,0-7.68,5.51-7.68,5.51H334.194S335.972,360.511,329.472,356.843Z" transform="translate(-184.687 -103.454)" fill="#fff" opacity="0.5"/></g><g transform="translate(352.631 131.927)"><path d="M514.247,614.74h92.1c-1.763-11.67-9.006-9.617-9.968-27.7-.481-9.058,7.666-20.38,6.951-32.337-.583-9.858-9.953-19.958-10.682-31.235-.656-10.175,7.287-21.467,6.573-32.427-.743-10.356-10.2-20.3-11.09-31.084-.816-10.568,7.024-21.905,6.092-32.533s-10.595-20.4-11.659-30.873c-1.064-10.764,6.529-22.358,5.363-32.654-1.224-10.945-11.192-20.4-12.548-30.48-1.457-11.217,5.552-23.2,3.906-32.9-2.026-11.866-12.693-20.456-14.938-29.212-4.182-16.319-3.658-32.035-8.6-33.062-5.261-1.087-6.471,14.327-10.464,31.552-2.011,8.65-12.431,17.422-14.151,29.3-1.385,9.617,5.99,21.316,4.78,32.488-1.078,10.009-10.8,19.626-11.746,30.51-.889,10.236,7,21.513,6.223,32.216-.758,10.4-10.2,20.32-10.828,30.888s7.476,21.618,6.922,32.05c-.568,10.688-9.822,20.788-10.3,31.069-.5,10.885,7.8,21.86,7.389,31.944-.452,11.187-9.575,21.422-9.91,31.2-.408,11.866,8,22.811,7.738,31.854-.554,19.626-9.225,15.534-9.531,31.326Z" transform="translate(-449.716 -238.191)" fill="#0869d0"/><line y2="340.731" transform="translate(104.068 31.41)" fill="none" stroke="#000" stroke-miterlimit="10" stroke-width="1.457"/><path d="M568.168,303.115l-15,13.421L540.9,299.582" transform="translate(-449.716 -235.986)" fill="none" stroke="#000" stroke-miterlimit="10" stroke-width="1.457"/><path d="M568.168,360.373l-15,13.406L540.9,356.841" transform="translate(-449.716 -233.93)" fill="none" stroke="#000" stroke-miterlimit="10" stroke-width="1.457"/><path d="M568.168,414.207l-15,13.421L540.9,410.674" transform="translate(-449.716 -231.997)" fill="none" stroke="#000" stroke-miterlimit="10" stroke-width="1.457"/><path d="M568.168,478.286l-15,13.406L540.9,474.753" transform="translate(-449.716 -229.696)" fill="none" stroke="#000" stroke-miterlimit="10" stroke-width="1.457"/><path d="M568.168,543.035l-15,13.406L540.9,539.5" transform="translate(-449.716 -227.37)" fill="none" stroke="#000" stroke-miterlimit="10" stroke-width="1.457"/><path d="M451.509,611.764h71.1c-1.37-9.058-6.951-7.427-7.695-21.377-.379-7.035,5.9-15.731,5.363-24.97-.452-7.548-7.68-15.414-8.248-24.155-.51-7.85,5.669-16.606,5.072-25.03-.568-8-7.9-15.67-8.555-23.989s5.421-16.923,4.707-25.121-8.19-15.746-8.977-23.822c-.816-8.318,5.042-17.255,4.139-25.226-.947-8.439-8.642-15.731-9.677-23.505-1.166-8.665,4.285-17.92,3-25.392-1.559-9.164-9.793-15.806-11.513-22.554-3.235-12.591-2.827-24.743-6.645-25.528-4.066-.845-5,11.051-8.074,24.366-1.545,6.673-9.6,13.451-10.93,22.645-1.064,7.428,4.62,16.455,3.687,25.076-.831,7.729-8.321,15.1-9.065,23.551-.685,7.9,5.407,16.606,4.809,24.864-.583,8.031-7.855,15.685-8.365,23.838s5.829,16.7,5.348,24.743-7.578,16.048-7.942,23.989c-.393,8.394,6,16.863,5.7,24.653-.35,8.635-7.389,16.606-7.651,24.155-.321,9.148,6.179,17.618,5.975,24.577-.437,15.1-7.126,12-7.359,24.155Z" transform="translate(-449.716 -235.215)" fill="#0869d0"/><line y2="263.013" transform="translate(32.323 110.139)" fill="none" stroke="#000" stroke-miterlimit="10" stroke-width="1.457"/><path d="M493.13,371.217l-11.571,10.356-9.473-13.089" transform="translate(-449.716 -233.512)" fill="none" stroke="#000" stroke-miterlimit="10" stroke-width="1.457"/><path d="M493.13,415.4l-11.571,10.356-9.473-13.074" transform="translate(-449.716 -231.925)" fill="none" stroke="#000" stroke-miterlimit="10" stroke-width="1.457"/><path d="M493.13,456.966l-11.571,10.356-9.473-13.074" transform="translate(-449.716 -230.432)" fill="none" stroke="#000" stroke-miterlimit="10" stroke-width="1.457"/><path d="M493.13,506.428l-11.571,10.356L472.086,503.7" transform="translate(-449.716 -228.656)" fill="none" stroke="#000" stroke-miterlimit="10" stroke-width="1.457"/><path d="M493.13,556.414l-11.571,10.341-9.473-13.074" transform="translate(-449.716 -226.861)" fill="none" stroke="#000" stroke-miterlimit="10" stroke-width="1.457"/></g><g transform="translate(105.483 52.589)"><path d="M388.13,611.582V306.359h15.55V611.582" transform="translate(-202.568 -156.404)" fill="#2e353a" stroke="#2e353a" stroke-linecap="round" stroke-linejoin="round" stroke-width="1.457"/><path d="M380.362,611.582V306.359h15.55V611.582" transform="translate(-202.568 -156.404)" fill="#0869d0" stroke="#2e353a" stroke-linecap="round" stroke-linejoin="round" stroke-width="1.457"/><rect width="15.55" height="36.232" transform="translate(177.794 149.955)" fill="#2e353a" opacity="0.3"/><path d="M446.714,191.332H331.5L381.717,319.11H496.948V243.355c0-28.737-22.493-52.031-50.234-52.023Z" transform="translate(-202.568 -160.535)" fill="#0869d0" stroke="#2e353a" stroke-linecap="round" stroke-linejoin="round" stroke-width="1.457"/><path d="M372.93,295.052l8.744,22.373H496.948V241.671a33.513,33.513,0,0,0-.117-3.427H372.959Z" transform="translate(-202.568 -158.85)" opacity="0.3"/><line x1="12.125" transform="translate(231.176 79.393)" stroke-width="1.457" stroke="#2e353a" stroke-linecap="round" stroke-linejoin="round" fill="none"/><line x1="36.695" transform="translate(257.568 79.393)" stroke-width="1.457" stroke="#2e353a" stroke-linecap="round" stroke-linejoin="round" fill="none"/><path d="M331.5,191.332h0c27.743,0,50.234,23.3,50.234,52.038v75.755H281.264v-75.77C281.272,214.621,303.76,191.332,331.5,191.332Z" transform="translate(-202.568 -160.535)" fill="#2e353a" stroke="#2e353a" stroke-linecap="round" stroke-linejoin="round" stroke-width="1.457"/><rect width="86.565" height="8.62" transform="translate(92.584 149.955)" stroke-width="1.457" stroke="#2e353a" stroke-linecap="round" stroke-linejoin="round" fill="#0869d0"/><rect width="179.149" height="8.62" transform="translate(0 149.955)" stroke-width="1.457" stroke="#2e353a" stroke-linecap="round" stroke-linejoin="round" fill="#0869d0"/><rect width="86.565" height="8.62" transform="translate(92.584 149.955)" opacity="0.3"/><rect width="35.952" height="26.162" transform="translate(215.684)" stroke-width="1.457" stroke="#2e353a" stroke-linecap="round" stroke-linejoin="round" fill="#2e353a"/><rect width="7.768" height="81.522" transform="translate(210.831)" stroke-width="1.457" stroke="#2e353a" stroke-linecap="round" stroke-linejoin="round" fill="#fff"/><ellipse cx="8.744" cy="9.058" rx="8.744" ry="9.058" transform="translate(205.964 74.472)" stroke-width="1.457" stroke="#2e353a" stroke-linecap="round" stroke-linejoin="round" fill="#2e353a"/></g><g transform="translate(0 31.831)"><path d="M289.046,211.531c20.286,10.673,55.553,27.778,88.081,36.383" transform="translate(-97.085 -139.052)" fill="none" stroke="#fff" stroke-linecap="round" stroke-linejoin="round" stroke-width="1.457" stroke-dasharray="2 4"/><path d="M272.024,202.568s6.5,3.8,17.022,9.345" transform="translate(-97.085 -139.374)" fill="none" stroke="#2e353a" stroke-linecap="round" stroke-linejoin="round" stroke-width="1.457" stroke-dasharray="2 4"/><path d="M264.723,204.2l14.588-35.9L173.524,141.565Z" transform="translate(-97.085 -141.565)" fill="#fff" stroke="#2e353a" stroke-linecap="round" stroke-linejoin="round" stroke-width="1.84"/><path d="M271.835,172.649,264.723,204.2l-91.2-62.636Z" transform="translate(-97.085 -141.565)" fill="#0869d0" stroke="#2e353a" stroke-linecap="round" stroke-linejoin="round" stroke-width="1.84"/><path d="M271.835,172.649l-16.6,14.734-81.712-45.818Z" transform="translate(-97.085 -141.565)" fill="#fff" stroke="#2e353a" stroke-linecap="round" stroke-linejoin="round" stroke-width="1.84"/><path d="M279.311,168.3l14.777-6.22L173.524,141.565Z" transform="translate(-97.085 -141.565)" fill="#fff" stroke="#2e353a" stroke-linecap="round" stroke-linejoin="round" stroke-width="1.84"/><line x2="3.425" y2="2.174" transform="translate(147.09 57.05)" stroke-width="1.457" stroke="#2e353a" stroke-linecap="round" stroke-linejoin="round" fill="none"/><line x2="11.469" y2="7.277" transform="translate(128.407 45.184)" stroke-width="1.457" stroke="#2e353a" stroke-linecap="round" stroke-linejoin="round" fill="none"/><path d="M212.609,269.716V230.782l107.521,17.9Z" transform="translate(-97.085 -138.361)" fill="#fff" stroke="#2e353a" stroke-linecap="round" stroke-linejoin="round" stroke-width="1.84"/><path d="M217.87,237.544l-5.261,31.929,107.521-21.03Z" transform="translate(-97.085 -138.118)" fill="#0869d0" stroke="#2e353a" stroke-linecap="round" stroke-linejoin="round" stroke-width="1.84"/><path d="M217.87,237.544l9.779,20.245,92.482-9.345Z" transform="translate(-97.085 -138.118)" fill="#fff" stroke="#2e353a" stroke-linecap="round" stroke-linejoin="round" stroke-width="1.84"/><path d="M212.609,231.187,201.33,219.5l118.8,29.589Z" transform="translate(-97.085 -138.766)" fill="#fff" stroke="#2e353a" stroke-linecap="round" stroke-linejoin="round" stroke-width="1.84"/><line y1="1.963" x2="9.327" transform="translate(154.027 128.668)" stroke-width="1.457" stroke="#2e353a" stroke-linecap="round" stroke-linejoin="round" fill="none"/><line y1="4.937" x2="23.448" transform="translate(121.266 132.594)" stroke-width="1.457" stroke="#2e353a" stroke-linecap="round" stroke-linejoin="round" fill="none"/><path d="M199.654,266.049s-84.525,15.1-100.555,93.6,68.494,83.031,83.068,45.29-49.549-52.838-64.122-16.606,29.147,98.128,88.9,101.147c49.651,2.506,188.855-57.533,275.435-72.705,0,0,64.122-18.388,163.22-14.357" transform="translate(-97.085 -137.094)" fill="none" stroke="#2e353a" stroke-linecap="round" stroke-linejoin="round" stroke-width="1.457" stroke-dasharray="2 4"/></g><g transform="translate(8.323 314.578)"><line x2="24.294" transform="translate(511.521 92.283)" stroke-width="1.457" stroke="#2e353a" stroke-linecap="round" stroke-linejoin="round" fill="#fff"/><line x2="24.294" transform="translate(511.521 129.511)" stroke-width="1.457" stroke="#2e353a" stroke-linecap="round" stroke-linejoin="round" fill="#fff"/><path d="M105.408,539.791H614.015V504.555H105.408" transform="translate(-105.408 -411.276)" fill="#fff" stroke="#2e353a" stroke-linecap="round" stroke-linejoin="round" stroke-width="1.457"/><path d="M140.763,607.94V430.675a3.272,3.272,0,0,1,.962-2.325l13.291-12.968a3.029,3.029,0,0,1,4.372.136l11.659,12.847a3.341,3.341,0,0,1,.831,2.189V607.94" transform="translate(-105.408 -414.509)" fill="#2e353a" stroke="#2e353a" stroke-linecap="round" stroke-linejoin="round" stroke-width="1.457"/><path d="M136.989,609.45V430.676a3.225,3.225,0,0,1,.976-2.325l13.291-12.968a3.015,3.015,0,0,1,4.372.136l11.659,12.847a3.264,3.264,0,0,1,.831,2.189V609.45" transform="translate(-105.408 -414.51)" fill="#fff" stroke="#2e353a" stroke-linecap="round" stroke-linejoin="round" stroke-width="1.457"/><path d="M252.831,607.94V430.676a3.272,3.272,0,0,1,.962-2.325L267.1,415.383a3.015,3.015,0,0,1,4.372.136l11.659,12.847a3.264,3.264,0,0,1,.831,2.189V607.94" transform="translate(-105.408 -414.51)" fill="#2e353a" stroke="#2e353a" stroke-linecap="round" stroke-linejoin="round" stroke-width="1.457"/><path d="M249.684,609.449V430.675a3.225,3.225,0,0,1,.976-2.325l13.291-12.968a3.029,3.029,0,0,1,4.372.136l11.659,12.847a3.279,3.279,0,0,1,.845,2.189V609.45" transform="translate(-105.408 -414.509)" fill="#fff" stroke="#2e353a" stroke-linecap="round" stroke-linejoin="round" stroke-width="1.457"/><path d="M365.526,607.94V430.675a3.225,3.225,0,0,1,.976-2.325l13.291-12.968a3.029,3.029,0,0,1,4.372.136l11.659,12.847a3.279,3.279,0,0,1,.845,2.189V609.45" transform="translate(-105.408 -414.509)" fill="#2e353a" stroke="#2e353a" stroke-linecap="round" stroke-linejoin="round" stroke-width="1.457"/><path d="M362.393,609.45V430.676a3.272,3.272,0,0,1,.962-2.325l13.305-12.968a3.015,3.015,0,0,1,4.372.136l11.659,12.847a3.264,3.264,0,0,1,.831,2.189V609.45" transform="translate(-105.408 -414.51)" fill="#fff" stroke="#2e353a" stroke-linecap="round" stroke-linejoin="round" stroke-width="1.457"/><path d="M478.236,607.94V430.675a3.272,3.272,0,0,1,.962-2.325l13.291-12.968a3.029,3.029,0,0,1,4.372.136l11.659,12.847a3.342,3.342,0,0,1,.831,2.189V607.94" transform="translate(-105.408 -414.509)" fill="#2e353a" stroke="#2e353a" stroke-linecap="round" stroke-linejoin="round" stroke-width="1.457"/><path d="M475.088,609.45V430.676a3.225,3.225,0,0,1,.976-2.325l13.291-12.968a3.015,3.015,0,0,1,4.372.136l11.659,12.847a3.264,3.264,0,0,1,.831,2.189V609.45" transform="translate(-105.408 -414.51)" fill="#fff" stroke="#2e353a" stroke-linecap="round" stroke-linejoin="round" stroke-width="1.457"/><path d="M590.931,607.94V430.676a3.272,3.272,0,0,1,.962-2.325L605.2,415.383a3.015,3.015,0,0,1,4.372.136l11.659,12.847a3.265,3.265,0,0,1,.831,2.189V607.94" transform="translate(-105.408 -414.51)" fill="#2e353a" stroke="#2e353a" stroke-linecap="round" stroke-linejoin="round" stroke-width="1.457"/><path d="M587.783,609.449V430.675a3.225,3.225,0,0,1,.977-2.325l13.291-12.968a3.029,3.029,0,0,1,4.372.136l11.659,12.847a3.279,3.279,0,0,1,.845,2.189V609.45" transform="translate(-105.408 -414.509)" fill="#fff" stroke="#2e353a" stroke-linecap="round" stroke-linejoin="round" stroke-width="1.457"/><line y2="12.923" transform="translate(50.205 1.009)" stroke-width="1.457" stroke="#2e353a" stroke-linecap="round" stroke-linejoin="round" fill="none"/><line y2="30.586" transform="translate(55.203 7.681)" stroke-width="1.457" stroke="#2e353a" stroke-linecap="round" stroke-linejoin="round" fill="none"/><line y2="38.693" transform="translate(150.411 10.188)" stroke-width="1.457" stroke="#2e353a" stroke-linecap="round" stroke-linejoin="round" fill="none"/><line y2="16.848" transform="translate(155.234 5.191)" stroke-width="1.457" stroke="#2e353a" stroke-linecap="round" stroke-linejoin="round" fill="none"/><line y2="38.028" transform="translate(271.252 0.873)" stroke-width="1.457" stroke="#2e353a" stroke-linecap="round" stroke-linejoin="round" fill="none"/><line y2="56.19" transform="translate(278.174 3.938)" stroke-width="1.457" stroke="#2e353a" stroke-linecap="round" stroke-linejoin="round" fill="none"/><line y2="42.437" transform="translate(375.188 10.188)" stroke-width="1.457" stroke="#2e353a" stroke-linecap="round" stroke-linejoin="round" fill="none"/><line y2="10.613" transform="translate(390.855 5.191)" stroke-width="1.457" stroke="#2e353a" stroke-linecap="round" stroke-linejoin="round" fill="none"/><line y2="22.479" transform="translate(492.693 4.557)" stroke-width="1.457" stroke="#2e353a" stroke-linecap="round" stroke-linejoin="round" fill="none"/><line y2="64.915" transform="translate(505.954 7.063)" stroke-width="1.457" stroke="#2e353a" stroke-linecap="round" stroke-linejoin="round" fill="none"/><line x1="13.262" transform="translate(468.589 101.945)" stroke-width="1.457" stroke="#2e353a" stroke-linecap="round" stroke-linejoin="round" fill="none"/><line x1="46.401" transform="translate(435.449 112.558)" stroke-width="1.457" stroke="#2e353a" stroke-linecap="round" stroke-linejoin="round" fill="none"/><line x1="21.088" transform="translate(287.807 112.558)" stroke-width="1.457" stroke="#2e353a" stroke-linecap="round" stroke-linejoin="round" fill="none"/><line x1="21.088" transform="translate(176.934 112.558)" stroke-width="1.457" stroke="#2e353a" stroke-linecap="round" stroke-linejoin="round" fill="none"/><line x1="21.088" transform="translate(10.012 106.942)" stroke-width="1.457" stroke="#2e353a" stroke-linecap="round" stroke-linejoin="round" fill="none"/><line x1="8.438" transform="translate(22.661 116.921)" stroke-width="1.457" stroke="#2e353a" stroke-linecap="round" stroke-linejoin="round" fill="none"/><line x1="10.245" transform="translate(287.807 106.942)" stroke-width="1.457" stroke="#2e353a" stroke-linecap="round" stroke-linejoin="round" fill="none"/><line x1="10.245" transform="translate(175.724 118.793)" stroke-width="1.457" stroke="#2e353a" stroke-linecap="round" stroke-linejoin="round" fill="none"/><line x1="10.245" transform="translate(132.937 118.793)" stroke-width="1.457" stroke="#2e353a" stroke-linecap="round" stroke-linejoin="round" fill="none"/><line x1="9.035" transform="translate(513.78 112.558)" stroke-width="1.457" stroke="#2e353a" stroke-linecap="round" stroke-linejoin="round" fill="none"/><line x1="5.421" transform="translate(529.446 112.558)" stroke-width="1.457" stroke="#2e353a" stroke-linecap="round" stroke-linejoin="round" fill="none"/><path d="M167.592,460.515s-3.643,32.443-8.015,65.64,3.643,67.165,5.829,70.184" transform="translate(-105.408 -412.858)" fill="none" stroke="#2e353a" stroke-linecap="round" stroke-linejoin="round" stroke-width="1.457"/><path d="M153.18,524.275c.7-6.476,1.282-10.568,1.282-10.568" transform="translate(-105.408 -410.947)" fill="none" stroke="#2e353a" stroke-linecap="round" stroke-linejoin="round" stroke-width="1.457"/><path d="M163.935,589.924s-13.116-3.019-13.116-27.174c0-9.918.612-20.078,1.341-28.684" transform="translate(-105.408 -410.216)" fill="none" stroke="#2e353a" stroke-linecap="round" stroke-linejoin="round" stroke-width="1.457"/><path d="M273.977,423.353s2.915,2.264-2.186,27.929-4.372,63.406,2.186,84.541" transform="translate(-105.408 -414.192)" fill="none" stroke="#2e353a" stroke-linecap="round" stroke-linejoin="round" stroke-width="1.457"/><path d="M281.264,469.259s-7.287,22.645-2.186,54.348" transform="translate(-105.408 -412.544)" fill="none" stroke="#2e353a" stroke-linecap="round" stroke-linejoin="round" stroke-width="1.457"/><path d="M364.331,483.089s3.643,21.89,7.287,44.52.729,54.348-2.186,62.636-5.829,15.1-5.829,15.1" transform="translate(-105.408 -412.047)" fill="none" stroke="#2e353a" stroke-linecap="round" stroke-linejoin="round" stroke-width="1.457"/><path d="M378.059,590.452c-3.25,10.326-7.287-1.736-7.287-1.736" transform="translate(-105.408 -408.254)" fill="none" stroke="#2e353a" stroke-linecap="round" stroke-linejoin="round" stroke-width="1.457"/><path d="M377.928,515.893s6.864,36.7,2.987,64.327" transform="translate(-105.408 -410.869)" fill="none" stroke="#2e353a" stroke-linecap="round" stroke-linejoin="round" stroke-width="1.457"/><path d="M362.874,527.552s7.287,15.851.729,30.948" transform="translate(-105.408 -410.45)" fill="none" stroke="#2e353a" stroke-linecap="round" stroke-linejoin="round" stroke-width="1.457"/><path d="M498.843,529.709a105.834,105.834,0,0,0,3.833,13.587" transform="translate(-105.408 -410.373)" fill="none" stroke="#2e353a" stroke-linecap="round" stroke-linejoin="round" stroke-width="1.457"/><path d="M504.861,453.957a216.176,216.176,0,0,0-8.744,46.8,111.741,111.741,0,0,0,1.3,24.049" transform="translate(-105.408 -413.093)" fill="none" stroke="#2e353a" stroke-linecap="round" stroke-linejoin="round" stroke-width="1.457"/><path d="M491.017,520.965s6.558,25.664,10.2,34.722,2.186,30.933-2.186,41.5" transform="translate(-105.408 -410.687)" fill="none" stroke="#2e353a" stroke-linecap="round" stroke-linejoin="round" stroke-width="1.457"/><path d="M589.357,464.887s14.573,27.174.729,71.694" transform="translate(-105.408 -412.701)" fill="none" stroke="#2e353a" stroke-linecap="round" stroke-linejoin="round" stroke-width="1.457"/><path d="M602.75,509.685c.087,8.484-.641,19.233-3.92,28.291-6.558,18.116-9.473,24.155-9.473,24.155" transform="translate(-105.408 -411.092)" fill="none" stroke="#2e353a" stroke-linecap="round" stroke-linejoin="round" stroke-width="1.457"/><path d="M601.744,495.491s.481,3.246.772,8.243" transform="translate(-105.408 -411.601)" fill="none" stroke="#2e353a" stroke-linecap="round" stroke-linejoin="round" stroke-width="1.457"/></g></g></g></svg>