<?xml version="1.0" ?><!DOCTYPE svg  PUBLIC '-//W3C//DTD SVG 1.1//EN'  'http://www.w3.org/Graphics/SVG/1.1/DTD/svg11.dtd'><svg enable-background="new 0 0 512 512" height="512px" id="Calque_1" version="1.1" viewBox="0 0 512 512" width="512px" xml:space="preserve" xmlns="http://www.w3.org/2000/svg" xmlns:xlink="http://www.w3.org/1999/xlink"><g><g><g id="XMLID_1_"><g><polygon fill="#758289" points="441.65,181.02 479.39,249.42 454.97,262.9 339.74,54.09 333.78,43.29 333.77,43.27       358.21,29.79 395.96,98.21     "/><path d="M441.66,181.02h-0.01l-24.04-43.57l-21.65-39.24h0.01c22.06-12.18,49.61-4.86,62.85,16.2      c0.49,0.77,0.96,1.56,1.4,2.36C472.84,139.64,464.53,168.4,441.66,181.02z" fill="#A7B7C1"/><polygon fill="#303C44" points="222.26,363.77 291.81,449.59 237.27,479.68 167.73,393.87     "/><polygon opacity="0.2" points="291.81,449.59 237.27,479.68 167.73,393.87 180.01,387.09 248.87,472.07 291.13,448.75     "/><path d="M230.43,344.36c3.48,6.31,1.19,14.25-5.12,17.73l-3.05,1.68l-54.53,30.1l-5.71,3.15      c-6.32,3.48-14.25,1.18-17.73-5.12l-6.61-11.98l17.14-9.45l51.87-28.63l17.14-9.45L230.43,344.36z" fill="#758289"/><path d="M229.05,341.86l-17.11,9.43l-51.87,28.63l-17.14,9.45l1.83,3.32      c-0.16-0.26-0.32-0.52-0.47-0.79l-6.61-11.98l17.14-9.45l51.87-28.63l17.14-9.45L229.05,341.86z" fill="#303C44" opacity="0.2"/><polygon fill="#303C44" points="98.51,361.47 66.77,378.99 47.67,344.37 28.6,309.81 60.34,292.3 79.31,326.67     "/><polygon fill="#A7B7C1" points="159.19,237.74 197.36,306.92 130.25,343.94 92.08,274.76     "/><path d="M239.74,308.7l-1.28-2.33l-28.97-52.51l-27.91-50.57l-1.29-2.33c-3.48-6.31-11.41-8.61-17.73-5.12      L54.82,255.29c-6.31,3.48-8.59,11.42-5.12,17.73l10.64,19.28l18.97,34.37l19.2,34.8l10.65,19.29c3.47,6.3,11.41,8.6,17.72,5.12      l10.8-5.96l17.14-9.45l51.87-28.63l17.14-9.45l10.79-5.96C240.94,322.94,243.22,315,239.74,308.7z M130.25,343.94l-19.29-34.97      l-18.88-34.21l67.11-37.02l18.66,33.82l19.51,35.36L130.25,343.94z" fill="#526471"/><polygon fill="#303C44" points="454.95,262.91 238.46,306.37 209.49,253.86 181.58,203.29 333.78,43.29 339.74,54.09       393.25,151.08     "/></g><g><path d="M223.83,332.39l10.79-5.96c6.32-3.49,8.6-11.43,5.12-17.73l-1.28-2.33l-56.88-103.08l-1.29-2.33      c-3.48-6.31-11.41-8.61-17.73-5.12L54.82,255.29c-6.31,3.48-8.59,11.42-5.12,17.73l10.64,19.28l38.17,69.17l10.65,19.29      c3.47,6.3,11.41,8.6,17.72,5.12l10.8-5.96" fill="none"/><polyline fill="none" points="339.74,54.09 454.97,262.9 454.97,262.91 454.95,262.91 238.46,306.37     "/><line fill="none" x1="181.58" x2="333.78" y1="203.29" y2="43.29"/><polygon fill="none" points="197.36,306.92 130.25,343.94 92.08,274.76 159.19,237.74     "/><polygon fill="none" points="441.65,181.02 479.39,249.42 454.97,262.9 454.95,262.91 339.74,54.09 333.78,43.29 333.77,43.27       358.21,29.79 395.96,98.21     "/><path d="M206.69,341.84l17.14-9.45l6.6,11.97c3.48,6.31,1.19,14.25-5.12,17.73l-3.05,1.68l-54.53,30.1l-5.71,3.15      c-6.32,3.48-14.25,1.18-17.73-5.12l-6.61-11.98l17.14-9.45" fill="none"/><polyline fill="none" points="222.26,363.77 291.81,449.59 237.27,479.68 167.73,393.87     "/><line fill="none" x1="206.69" x2="154.82" y1="341.84" y2="370.47"/><polyline fill="none" points="98.51,361.47 66.77,378.99 28.6,309.81 60.34,292.3     "/><path d="M441.66,181.02c22.87-12.62,31.18-41.38,18.56-64.25c-0.44-0.8-0.91-1.59-1.4-2.36      c-13.24-21.06-40.79-28.38-62.85-16.2" fill="none"/></g></g></g><linearGradient gradientUnits="userSpaceOnUse" id="SVGID_1_" x1="218.778" x2="285.3248" y1="245.5807" y2="360.8431"><stop offset="0" style="stop-color:#000000"/><stop offset="1" style="stop-color:#FFFFFF;stop-opacity:0"/></linearGradient><path d="M454.95,262.91l-216.49,43.46l1.28,2.33   c3.48,6.3,1.2,14.24-5.12,17.73l-10.79,5.96l-17.14,9.45l-51.87,28.63l-17.14,9.45l-10.8,5.96c-6.31,3.48-14.25,1.18-17.72-5.12   l-10.65-19.29l-31.74,17.52l-19.1-34.62l31.64-17.7l31.65-17.7l66.89-37.41l31.64-17.7l183.76-102.78L454.95,262.91z" enable-background="new    " fill="url(#SVGID_1_)" opacity="0.2"/><linearGradient gradientUnits="userSpaceOnUse" id="SVGID_2_" x1="437.6517" x2="462.5351" y1="125.8789" y2="168.9782"><stop offset="0" style="stop-color:#000000"/><stop offset="1" style="stop-color:#FFFFFF;stop-opacity:0"/></linearGradient><path d="M441.65,181.02l-24.04-43.57l41.21-23.04   c0.49,0.77,0.96,1.56,1.4,2.36c12.62,22.87,4.31,51.63-18.56,64.25H441.65z" enable-background="new    " fill="url(#SVGID_2_)" opacity="0.2"/></g></svg>