<svg width="512" height="512" xmlns="http://www.w3.org/2000/svg">

 <g>
  <title>background</title>
  <rect fill="none" id="canvas_background" height="402" width="582" y="-1" x="-1"/>
 </g>
 <g>
  <title>Layer 1</title>
  <path fill="#342f30" id="svg_2" d="m89.4,100l26.2,347.9c2.5,32.5 29.6,58.1 60.7,58.1l159.3,0c31.1,0 58.2,-25.6 60.7,-58.1l26.3,-347.9l-333.2,0zm100.7,360.8c0.3,7.1 -5.1,12.7 -12,12.7s-12.7,-5.7 -13.1,-12.7l-14.6,-296.6c-0.5,-9.6 5.7,-17.4 13.8,-17.4s14.9,7.8 15.3,17.4l10.6,296.6zm78.4,0c0,7.1 -5.7,12.7 -12.5,12.7s-12.5,-5.7 -12.5,-12.7l-2,-296.6c-0.1,-9.6 6.4,-17.4 14.5,-17.4c8.1,0 14.6,7.8 14.5,17.4l-2,296.6zm78.4,0c-0.3,7.1 -6.2,12.7 -13.1,12.7s-12.2,-5.7 -12,-12.7l10.6,-296.6c0.3,-9.6 7.2,-17.4 15.3,-17.4c8.1,0 14.3,7.8 13.8,17.4l-14.6,296.6z"/>
  <path fill="#342f30" id="XMLID_2_" d="m445.3,82.8l-378.6,0l0,0c-1.8,-21.1 10.7,-38.4 27.9,-38.4l322.9,0c17.1,0 29.6,17.4 27.8,38.4l0,0z"/>
  <path fill="#342f30" id="XMLID_1_" d="m324.3,58.6l-136.6,0l-0.2,-7.8c-0.8,-24.5 14.6,-44.8 34.4,-44.8l68.3,0c19.7,0 35.1,20.3 34.4,44.7l-0.3,7.9z"/>
 </g>
</svg>